<svg width="25" height="25" viewBox="0 0 25 25" fill="none" xmlns="http://www.w3.org/2000/svg">
<path d="M12.5002 2.0835C11.1322 2.0835 9.77769 2.35293 8.51388 2.87642C7.25007 3.3999 6.10174 4.16719 5.13447 5.13447C3.18096 7.08797 2.0835 9.73749 2.0835 12.5002C2.0835 17.1043 5.07308 21.0106 9.2085 22.396C9.72933 22.4793 9.896 22.1564 9.896 21.8752V20.1147C7.01058 20.7397 6.396 18.7189 6.396 18.7189C5.91683 17.5106 5.23975 17.1877 5.23975 17.1877C4.29183 16.5418 5.31266 16.5627 5.31266 16.5627C6.35433 16.6356 6.90641 17.6356 6.90641 17.6356C7.81266 19.2189 9.34391 18.7502 9.93766 18.5002C10.0314 17.8231 10.3022 17.3647 10.5939 17.1043C8.28141 16.8439 5.85433 15.9481 5.85433 11.9793C5.85433 10.8231 6.25016 9.896 6.92725 9.15641C6.82308 8.896 6.4585 7.81266 7.03141 6.40641C7.03141 6.40641 7.90641 6.12516 9.896 7.46891C10.7189 7.23975 11.6147 7.12516 12.5002 7.12516C13.3856 7.12516 14.2814 7.23975 15.1043 7.46891C17.0939 6.12516 17.9689 6.40641 17.9689 6.40641C18.5418 7.81266 18.1772 8.896 18.0731 9.15641C18.7502 9.896 19.146 10.8231 19.146 11.9793C19.146 15.9585 16.7085 16.8335 14.3856 17.0939C14.7606 17.4168 15.1043 18.0522 15.1043 19.021V21.8752C15.1043 22.1564 15.271 22.4897 15.8022 22.396C19.9377 21.0002 22.9168 17.1043 22.9168 12.5002C22.9168 11.1322 22.6474 9.77768 22.1239 8.51388C21.6004 7.25007 20.8331 6.10174 19.8659 5.13447C18.8986 4.16719 17.7503 3.3999 16.4864 2.87642C15.2226 2.35293 13.8681 2.0835 12.5002 2.0835Z" fill="#76D7CC"/>
</svg>
