<svg width="25" height="25" viewBox="0 0 25 25" fill="none" xmlns="http://www.w3.org/2000/svg">
<path d="M17.1875 2.34375H7.8125C6.36257 2.3453 4.97248 2.92197 3.94722 3.94722C2.92197 4.97248 2.3453 6.36257 2.34375 7.8125V17.1875C2.3453 18.6374 2.92197 20.0275 3.94722 21.0528C4.97248 22.078 6.36257 22.6547 7.8125 22.6562H17.1875C18.6374 22.6547 20.0275 22.078 21.0528 21.0528C22.078 20.0275 22.6547 18.6374 22.6562 17.1875V7.8125C22.6547 6.36257 22.078 4.97248 21.0528 3.94722C20.0275 2.92197 18.6374 2.3453 17.1875 2.34375ZM12.5 17.1875C11.5729 17.1875 10.6666 16.9126 9.89576 16.3975C9.12491 15.8824 8.5241 15.1504 8.16932 14.2938C7.81453 13.4373 7.7217 12.4948 7.90257 11.5855C8.08344 10.6762 8.52988 9.841 9.18544 9.18544C9.841 8.52988 10.6762 8.08344 11.5855 7.90257C12.4948 7.7217 13.4373 7.81453 14.2938 8.16932C15.1504 8.5241 15.8824 9.12491 16.3975 9.89576C16.9126 10.6666 17.1875 11.5729 17.1875 12.5C17.1862 13.7428 16.6919 14.9343 15.8131 15.8131C14.9343 16.6919 13.7428 17.1862 12.5 17.1875ZM18.3594 7.8125C18.1276 7.8125 17.901 7.74377 17.7083 7.615C17.5156 7.48624 17.3654 7.30321 17.2767 7.08908C17.188 6.87495 17.1648 6.63932 17.21 6.412C17.2552 6.18468 17.3668 5.97587 17.5307 5.81198C17.6946 5.64809 17.9034 5.53648 18.1308 5.49127C18.3581 5.44605 18.5937 5.46926 18.8078 5.55795C19.022 5.64665 19.205 5.79685 19.3338 5.98957C19.4625 6.18228 19.5312 6.40885 19.5312 6.64062C19.5312 6.95143 19.4078 7.2495 19.188 7.46927C18.9682 7.68904 18.6702 7.8125 18.3594 7.8125ZM15.625 12.5C15.625 13.1181 15.4417 13.7223 15.0983 14.2362C14.755 14.7501 14.2669 15.1506 13.6959 15.3871C13.1249 15.6236 12.4965 15.6855 11.8903 15.565C11.2842 15.4444 10.7273 15.1467 10.2903 14.7097C9.85325 14.2727 9.55562 13.7158 9.43505 13.1097C9.31447 12.5035 9.37635 11.8751 9.61288 11.3041C9.8494 10.7331 10.2499 10.245 10.7638 9.90166C11.2777 9.55828 11.8819 9.375 12.5 9.375C13.3288 9.375 14.1237 9.70424 14.7097 10.2903C15.2958 10.8763 15.625 11.6712 15.625 12.5Z" fill="#76D7CC"/>
</svg>
